<svg width="261" height="261" viewBox="0 0 261 261" fill="none" xmlns="http://www.w3.org/2000/svg">
<path d="M54.375 228.375H206.625C218.637 228.375 228.375 218.637 228.375 206.625V54.375C228.375 42.3628 218.637 32.625 206.625 32.625H54.375C42.3628 32.625 32.625 42.3628 32.625 54.375V206.625C32.625 218.637 42.3628 228.375 54.375 228.375ZM54.375 228.375L174 108.75L228.375 163.125M108.75 92.4375C108.75 101.447 101.447 108.75 92.4375 108.75C83.4284 108.75 76.125 101.447 76.125 92.4375C76.125 83.4284 83.4284 76.125 92.4375 76.125C101.447 76.125 108.75 83.4284 108.75 92.4375Z" stroke="#1E1E1E" stroke-width="4" stroke-linecap="round" stroke-linejoin="round"/>
</svg>
